<svg xmlns="http://www.w3.org/2000/svg" style="display: none;">

  <symbol id="icon-phone" viewBox="0 0 16 16" fill="none" xmlns="http://www.w3.org/2000/svg">
    <path
      d="M13.715 9.86502L11.17 8.77352C10.7075 8.58132 10.165 8.71414 9.85125 9.10052L9.02275 10.1123C7.705 9.39502 6.6075 8.29752 5.89 6.98001L6.903 6.15026C7.29475 5.82726 7.42375 5.29626 7.224 4.82926L6.135 2.28426C5.9175 1.78198 5.37 1.50658 4.84 1.62886L2.47925 2.17651C1.96175 2.29451 1.6 2.74751 1.6 3.27801C1.6 9.41002 6.59 14.4 12.7225 14.4C13.2532 14.4 13.7077 14.039 13.8267 13.5218L14.3717 11.16C14.4925 10.6275 14.2175 10.0825 13.715 9.86502ZM13.0475 13.3425C13.0131 13.4917 12.8764 13.6003 12.723 13.6003C7.0305 13.6003 2.4005 8.97027 2.4005 3.27776C2.4005 3.12306 2.50635 2.99076 2.659 2.95576L5.01925 2.40801C5.04425 2.40215 5.06925 2.39941 5.09385 2.39941C5.2247 2.39941 5.3466 2.47676 5.4001 2.60019L6.4896 5.14269C6.5475 5.28001 6.51 5.43751 6.395 5.53251L5.1325 6.56751C4.99 6.68501 4.945 6.88501 5.0275 7.05252C5.862 8.74777 7.25525 10.14 8.95 10.975C9.11602 11.0578 9.31825 11.0133 9.436 10.8695L10.4707 9.60704C10.5633 9.49297 10.7247 9.45547 10.8582 9.51094L13.3982 10.5999C13.5459 10.664 13.6271 10.8242 13.5912 10.9804L13.0475 13.3425Z"
      fill="currentColor" />
  </symbol>


  <symbol id="icon-eye" viewBox="0 0 16 16" fill="none" xmlns="http://www.w3.org/2000/svg">
    <path
      d="M8 4.79999C6.2325 4.79999 4.8 6.23249 4.8 7.99999C4.8 9.76749 6.23325 11.2 8 11.2C9.766 11.2 11.2 9.76699 11.2 8.00249C11.2 6.23499 9.7675 4.79999 8 4.79999ZM8 10.4C6.67675 10.4 5.6 9.32349 5.6 7.99999C5.6 6.67649 6.67675 5.59999 8 5.59999C9.3235 5.59999 10.4 6.67549 10.4 8.00024C10.4 9.32249 9.3025 10.4 8 10.4ZM15.1125 7.55249C13.7575 4.48749 11.0725 2.39999 8 2.39999C4.9275 2.39999 2.24225 4.48999 0.886724 7.55249C0.839074 7.68499 0.799999 7.87499 0.799999 7.99999C0.799999 8.12442 0.839049 8.31499 0.886724 8.42574C2.243 11.5125 4.9275 13.6 8 13.6C11.0725 13.6 13.7575 11.5105 15.1125 8.44749C15.16 8.31499 15.2 8.10249 15.2 7.99999C15.2 7.87499 15.16 7.68499 15.1125 7.55249ZM14.38 8.10499C13.1075 11 10.6625 12.8 8 12.8C5.3375 12.8 2.8925 11.0005 1.625 8.11749C1.6145 8.08999 1.60125 8.02249 1.5775 8.00499C1.57887 7.97634 1.59215 7.91042 1.59674 7.89592C2.892 4.97749 5.3375 3.19999 8 3.19999C10.6625 3.19999 13.1075 4.99949 14.375 7.88249C14.3849 7.90949 14.3981 7.97532 14.3995 7.99357C14.3975 8.02249 14.385 8.08999 14.38 8.10499Z"
      fill="currentColor" />
  </symbol>


  <symbol id="icon-fax" viewBox="0 0 16 16" fill="none" xmlns="http://www.w3.org/2000/svg">
    <path
      d="M13.2 6.40001H6C5.86 6.40001 5.725 6.43001 5.6 6.47251V3.20001C5.6 2.75826 5.95825 2.40001 6.4 2.40001H11.835L12.8 3.36576V5.20001C12.8 5.42001 12.98 5.60001 13.2 5.60001C13.42 5.60001 13.6 5.42001 13.6 5.20001V3.36576C13.6 3.15351 13.515 2.95001 13.365 2.80001L12.4 1.83438C12.2275 1.68428 12.0475 1.60001 11.835 1.60001H6.4C5.5175 1.60001 4.8 2.31626 4.8 3.20001V4.87351C4.6525 4.83001 4.54 4.80001 4.4 4.80001H2.8C2.13725 4.80001 1.6 5.33751 1.6 6.00001V13.2C1.6 13.8625 2.13725 14.4 2.8 14.4H4.4C4.70875 14.4 4.98725 14.2801 5.2 14.0885C5.4125 14.28 5.6925 14.4 6 14.4H13.2C13.8627 14.4 14.4 13.8628 14.4 13.2V7.60001C14.4 6.93751 13.8625 6.40001 13.2 6.40001ZM4.8 13.2C4.8 13.42 4.62 13.6 4.4 13.6H2.8C2.5795 13.6 2.4 13.42 2.4 13.2V6.00001C2.4 5.78001 2.5795 5.60001 2.8 5.60001H4.4C4.62 5.60001 4.8 5.78001 4.8 6.00001V13.2ZM13.6 13.2C13.6 13.4206 13.4205 13.6 13.2 13.6H6C5.78 13.6 5.6 13.42 5.6 13.2V7.60001C5.6 7.38001 5.78 7.20001 6 7.20001H13.2C13.42 7.20001 13.6 7.38001 13.6 7.60001V13.2ZM8.4 8.60001C8.06725 8.60001 7.8 8.86726 7.8 9.20001C7.8 9.53276 8.06725 9.80001 8.4 9.80001C8.73275 9.80001 9 9.53276 9 9.20001C9 8.86726 8.7325 8.60001 8.4 8.60001ZM8.4 11C8.06725 11 7.8 11.2673 7.8 11.6C7.8 11.9328 8.06725 12.2 8.4 12.2C8.73275 12.2 9 11.9328 9 11.6C9 11.2673 8.7325 11 8.4 11ZM10.8 8.60001C10.4672 8.60001 10.2 8.86726 10.2 9.20001C10.2 9.53276 10.4672 9.80001 10.8 9.80001C11.1327 9.80001 11.4 9.53276 11.4 9.20001C11.4 8.86726 11.1325 8.60001 10.8 8.60001ZM10.8 11C10.4672 11 10.2 11.2673 10.2 11.6C10.2 11.9328 10.4672 12.2 10.8 12.2C11.1327 12.2 11.4 11.9328 11.4 11.6C11.4 11.2673 11.1325 11 10.8 11Z"
      fill="currentColor" />
  </symbol>


  <symbol id="icon-mail" viewBox="0 0 16 16" fill="none" xmlns="http://www.w3.org/2000/svg">
    <path
      d="M12.8 3.20001H3.2C2.31625 3.20001 1.6 3.91626 1.6 4.80001V11.2C1.6 12.0838 2.31625 12.8 3.2 12.8H12.8C13.6837 12.8 14.4 12.0838 14.4 11.2V4.80001C14.4 3.91626 13.6825 3.20001 12.8 3.20001ZM3.2 4.00001H12.8C13.241 4.00001 13.6 4.35901 13.6 4.80001V5.70026L8.72 9.36026C8.295 9.67826 7.70425 9.67826 7.27925 9.36026L2.4 5.70001V4.80001C2.4 4.36001 2.759 4.00001 3.2 4.00001ZM13.6 11.2C13.6 11.641 13.241 12 12.8 12H3.2C2.759 12 2.4 11.641 2.4 11.2V6.67751L6.8 10C7.153 10.2653 7.5765 10.4005 8 10.4005C8.4235 10.4005 8.8475 10.265 9.2 10L13.6 6.67751V11.2Z"
      fill="currentColor" />
  </symbol>


  <symbol id="icon-pin" viewBox="0 0 16 16" fill="none" xmlns="http://www.w3.org/2000/svg">
    <path
      d="M8.00001 1.60001C5.34926 1.60001 3.20001 3.74926 3.20001 6.40001C3.20001 8.33526 3.87426 8.87576 7.50751 14.1425C7.62501 14.315 7.81251 14.4 8.00001 14.4C8.18751 14.4 8.37376 14.314 8.49301 14.142C12.125 8.87501 12.8 8.33501 12.8 6.40001C12.8 3.74926 10.65 1.60001 8.00001 1.60001ZM8.00001 13.4475C4.49826 8.38501 4.00001 7.97751 4.00001 6.40001C4.00001 4.19451 5.79451 2.40001 8.00001 2.40001C10.2055 2.40001 12 4.19451 12 6.40001C12 7.99751 11.515 8.36751 8.00001 13.4475ZM9.71751 5.18251L7.33251 7.56751L6.28251 6.51751C6.12626 6.36126 5.87301 6.36126 5.71701 6.51751C5.56101 6.67376 5.56076 6.92701 5.71701 7.08301L7.05026 8.41651C7.12526 8.49151 7.22681 8.53371 7.33301 8.53371C7.43921 8.53371 7.54081 8.49151 7.61576 8.41651L10.2833 5.74901C10.4395 5.59276 10.4395 5.33951 10.2833 5.18351C10.127 5.02751 9.87251 5.02751 9.71751 5.18251Z"
      fill="currentColor" />
  </symbol>


  <symbol id="icon-user" viewBox="0 0 16 16" fill="none" xmlns="http://www.w3.org/2000/svg">
    <path
      d="M8.00002 8.00001C9.76753 8.00001 11.2 6.56726 11.2 4.80001C11.2 3.03276 9.76753 1.60001 8.00002 1.60001C6.23252 1.60001 4.80002 3.03276 4.80002 4.80001C4.80002 6.56726 6.23252 8.00001 8.00002 8.00001ZM8.00002 2.40001C9.32352 2.40001 10.4 3.47651 10.4 4.80001C10.4 6.12326 9.32352 7.20001 8.00002 7.20001C6.67652 7.20001 5.60002 6.12251 5.60002 4.80001C5.60002 3.47651 6.67752 2.40001 8.00002 2.40001ZM9.26753 9.20001H6.73252C4.34027 9.20001 2.40002 11.14 2.40002 13.5325C2.40002 14.011 2.78802 14.3993 3.26652 14.3993H12.734C13.2125 14.4 13.6 14.0125 13.6 13.5325C13.6 11.14 11.66 9.20001 9.26753 9.20001ZM12.7325 13.6H3.26652C3.23002 13.6 3.20002 13.57 3.20002 13.5325C3.20002 11.585 4.78502 10 6.73252 10H9.26503C11.215 10 12.8 11.585 12.8 13.5325C12.8 13.57 12.77 13.6 12.7325 13.6Z"
      fill="currentColor" />
  </symbol>


  <symbol id="icon-identification" viewBox="0 0 16 16" fill="none"
    xmlns="http://www.w3.org/2000/svg">
    <path
      d="M12.8 8.79999H9.59999C9.37909 8.79999 9.19999 8.97909 9.19999 9.19999C9.19999 9.42089 9.37999 9.59999 9.59999 9.59999H12.8C13.0209 9.59999 13.2 9.42089 13.2 9.19999C13.2 8.97909 13.02 8.79999 12.8 8.79999ZM5.59999 7.99999C6.48374 7.99999 7.19999 7.28374 7.19999 6.39999C7.19999 5.51624 6.48249 4.79999 5.59999 4.79999C4.71749 4.79999 3.99999 5.51749 3.99999 6.39999C3.99999 7.28249 4.71749 7.99999 5.59999 7.99999ZM5.59999 5.59999C6.04099 5.59999 6.39999 5.95899 6.39999 6.39999C6.39999 6.84099 6.03999 7.19999 5.59999 7.19999C5.15999 7.19999 4.79999 6.83999 4.79999 6.39999C4.79999 5.95999 5.15999 5.59999 5.59999 5.59999ZM6.39999 8.79999H4.79999C3.69549 8.79999 2.79999 9.69549 2.79999 10.8C2.79999 11.02 2.97899 11.2 3.19999 11.2C3.42099 11.2 3.59999 11.0209 3.59999 10.8C3.59999 10.1375 4.13749 9.59999 4.79999 9.59999H6.39999C7.06274 9.59999 7.59999 10.1372 7.59999 10.8C7.59999 11.0209 7.77909 11.2 7.99999 11.2C8.22089 11.2 8.39999 11.0209 8.39999 10.8C8.39999 9.69499 7.50499 8.79999 6.39999 8.79999ZM13.6 2.39999H2.39999C1.51624 2.39999 0.799988 3.11624 0.799988 3.99999V12C0.799988 12.8837 1.51624 13.6 2.39999 13.6H13.6C14.4837 13.6 15.2 12.8837 15.2 12V3.99999C15.2 3.11624 14.4825 2.39999 13.6 2.39999ZM14.4 12C14.4 12.441 14.041 12.8 13.6 12.8H2.39999C1.95899 12.8 1.59999 12.441 1.59999 12V3.99999C1.59999 3.55899 1.95899 3.19999 2.39999 3.19999H13.6C14.041 3.19999 14.4 3.55899 14.4 3.99999V12ZM12.8 7.19999H9.59999C9.37909 7.19999 9.19999 7.37909 9.19999 7.59999C9.19999 7.82089 9.37999 7.99999 9.59999 7.99999H12.8C13.0209 7.99999 13.2 7.82089 13.2 7.59999C13.2 7.37909 13.02 7.19999 12.8 7.19999ZM12.8 5.59999H9.59999C9.37909 5.59999 9.19999 5.77909 9.19999 5.99999C9.19999 6.22089 9.37999 6.39999 9.59999 6.39999H12.8C13.0209 6.39999 13.2 6.22089 13.2 5.99999C13.2 5.77909 13.02 5.59999 12.8 5.59999Z"
      fill="currentColor" />
  </symbol>


  <symbol id="icon-tip" viewBox="0 0 16 16" fill="none" xmlns="http://www.w3.org/2000/svg">
    <path
      d="M7.99998 1.59998C4.46498 1.59998 1.59998 4.46498 1.59998 7.99998C1.59998 11.535 4.46498 14.4 7.99998 14.4C11.535 14.4 14.4 11.535 14.4 7.99998C14.4 4.46498 11.535 1.59998 7.99998 1.59998ZM7.99998 4.79998C8.44173 4.79998 8.79998 5.15823 8.79998 5.59998C8.79998 6.04173 8.44173 6.39998 7.99998 6.39998C7.55823 6.39998 7.19998 6.04248 7.19998 5.59998C7.19998 5.15748 7.55748 4.79998 7.99998 4.79998ZM8.99998 11.2H6.99998C6.66998 11.2 6.39998 10.9325 6.39998 10.6C6.39998 10.2675 6.66873 9.99998 6.99998 9.99998H7.39998V8.39998H7.19998C6.86873 8.39998 6.59998 8.13123 6.59998 7.79998C6.59998 7.46873 6.86998 7.19998 7.19998 7.19998H7.99998C8.33123 7.19998 8.59998 7.46873 8.59998 7.79998V9.99998H8.99998C9.33122 9.99998 9.59998 10.2687 9.59998 10.6C9.59998 10.9312 9.33248 11.2 8.99998 11.2Z"
      fill="currentColor" />
  </symbol>


  <symbol id="icon-arrow" viewBox="0 0 16 16" fill="none" xmlns="http://www.w3.org/2000/svg">
    <path
      d="M13.495 9.87C13.415 9.9575 13.3075 10 13.2 10C13.1027 10 13.0055 9.96485 12.9285 9.89375L7.99999 5.345L3.07248 9.8725C2.90998 10.0225 2.65648 10.0131 2.50723 9.84985C2.35723 9.68735 2.36738 9.4351 2.52949 9.2851L7.7295 4.4851C7.8834 4.3429 8.1185 4.3429 8.2725 4.4851L13.4725 9.2851C13.6325 9.4575 13.645 9.7075 13.495 9.87Z"
      fill="currentColor" />
  </symbol>


</svg>
