<svg width="224" height="224" viewBox="0 0 224 224" fill="none" xmlns="http://www.w3.org/2000/svg">
<circle cx="112" cy="112" r="109.5" fill="white" stroke="#0A8CCC" stroke-width="5"/>
<path d="M158.901 78.0008C155.301 78.0008 152.101 80.3008 152.001 84.3008H165.101C165.401 82.2008 164.201 78.0008 158.901 78.0008Z" fill="#0A8CCC"/>
<path d="M177.601 61.0008H133.301C132.523 60.9934 131.752 61.1398 131.031 61.4315C130.31 61.7233 129.654 62.1546 129.101 62.7008L111.801 82.3008C104.801 74.4008 94.5008 62.7008 94.2008 62.5008C93.0786 61.5574 91.6665 61.0279 90.2008 61.0008H45.8008C44.904 60.9873 44.0137 61.1539 43.1826 61.4909C42.3515 61.8279 41.5965 62.3282 40.9624 62.9624C40.3282 63.5965 39.8279 64.3515 39.4909 65.1826C39.1539 66.0137 38.9873 66.904 39.0008 67.8008V150.201V155.301C38.9873 156.197 39.1539 157.088 39.4909 157.919C39.8279 158.75 40.3282 159.505 40.9624 160.139C41.5965 160.773 42.3515 161.274 43.1826 161.611C44.0137 161.948 44.904 162.114 45.8008 162.101H77.0008C77.7839 162.114 78.5619 161.971 79.2893 161.681C80.0167 161.39 80.679 160.958 81.2375 160.408C81.796 159.859 82.2395 159.204 82.5423 158.482C82.845 157.76 83.0009 156.984 83.0008 156.201V123.501L107.601 151.201C108.172 151.817 108.849 152.325 109.601 152.701C110.193 152.984 110.845 153.121 111.501 153.101C112.152 153.075 112.794 152.94 113.401 152.701C114.218 152.389 114.941 151.873 115.501 151.201L140.101 123.501V156.201C140.152 157.767 140.804 159.253 141.921 160.351C143.038 161.449 144.534 162.076 146.101 162.101H177.601C178.497 162.114 179.388 161.948 180.219 161.611C181.05 161.274 181.805 160.773 182.439 160.139C183.073 159.505 183.574 158.75 183.911 157.919C184.248 157.088 184.414 156.197 184.401 155.301V67.7008C184.401 66.8124 184.224 65.9329 183.881 65.1135C183.538 64.294 183.036 63.5509 182.403 62.9274C181.77 62.304 181.02 61.8125 180.195 61.4818C179.371 61.151 178.489 60.9875 177.601 61.0008V61.0008ZM172.701 89.7008H152.101C153.101 94.0008 157.601 95.7008 162.401 95.7008H171.301V100.601C167.894 101.924 164.253 102.537 160.601 102.401C151.301 102.401 143.601 97.1008 143.601 86.9008C143.601 76.7008 151.101 72.0008 157.401 71.5008H158.701C170.801 71.5008 174.701 81.1008 172.701 89.7008Z" fill="#0A8CCC"/>
</svg>
